<svg width="37" height="36" viewBox="0 0 37 36" fill="none" xmlns="http://www.w3.org/2000/svg">
<path fill-rule="evenodd" clip-rule="evenodd" d="M14 2H23C29.6274 2 35 7.37258 35 14V22C35 28.6274 29.6274 34 23 34H14C7.37258 34 2 28.6274 2 22V14C2 7.37258 7.37258 2 14 2ZM0 14C0 6.26801 6.26801 0 14 0H23C30.732 0 37 6.26801 37 14V22C37 29.732 30.732 36 23 36H14C6.26801 36 0 29.732 0 22V14ZM29.5984 9.0005C29.5984 9.99461 28.7702 10.8005 27.7484 10.8005C26.7267 10.8005 25.8984 9.99461 25.8984 9.0005C25.8984 8.00639 26.7267 7.2005 27.7484 7.2005C28.7702 7.2005 29.5984 8.00639 29.5984 9.0005ZM18.499 25.0011C22.5551 25.0011 25.749 21.8158 25.749 18.0011C25.749 14.1864 22.5551 11.0011 18.499 11.0011C14.4429 11.0011 11.249 14.1864 11.249 18.0011C11.249 21.8158 14.4429 25.0011 18.499 25.0011ZM18.499 27.0011C23.6077 27.0011 27.749 22.9717 27.749 18.0011C27.749 13.0306 23.6077 9.00113 18.499 9.00113C13.3904 9.00113 9.24902 13.0306 9.24902 18.0011C9.24902 22.9717 13.3904 27.0011 18.499 27.0011Z" fill="#ECD03D"/>
</svg>
