<svg width="38" height="38" viewBox="0 0 38 38" fill="none" xmlns="http://www.w3.org/2000/svg">
<path d="M12.2641 9.80769L13.7262 9.48509C15.0962 9.1828 16.5574 9.68303 17.1407 10.654L18.3013 12.5863C18.8072 13.4283 18.5219 14.4157 17.596 15.0274L15.0198 16.7297C15.1752 17.7532 15.6626 18.7622 16.482 19.7566C17.3015 20.7509 18.3263 21.5769 19.5563 22.2344L22.6464 21.5225C23.8177 21.2526 25.0913 21.5711 25.8069 22.3127L27.4738 24.0403C28.3057 24.9024 28.1518 26.0876 27.1139 26.813L26.0017 27.5903C24.8946 28.3641 23.3161 28.641 21.8576 28.3173C18.4144 27.553 15.2535 25.3062 12.3749 21.5771C9.49217 17.8425 8.48062 14.6785 9.34029 12.0852C9.70204 10.994 10.8143 10.1276 12.2641 9.80769Z" fill="#ECD03D"/>
<circle cx="19" cy="19" r="18" stroke="#ECD03D" stroke-width="2"/>
</svg>
